<svg width="48" height="48" viewBox="0 0 48 48" fill="none" xmlns="http://www.w3.org/2000/svg">
<g clip-path="url(#clip0)">
<path d="M41.6037 22.5305C42.9898 21.5565 43.9076 19.9363 43.9076 18.11C43.9076 15.1224 41.4913 12.7061 38.5037 12.7061C35.5161 12.7061 33.0998 15.1224 33.0998 18.11C33.0998 19.9363 34.0082 21.5565 35.4037 22.5305C34.2143 22.9426 33.1279 23.5794 32.2101 24.4036C30.9457 23.3266 29.4566 22.5024 27.827 22.0154C29.8031 20.8166 31.133 18.6345 31.133 16.1526C31.133 12.3689 28.0705 9.3064 24.2868 9.3064C20.5032 9.3064 17.4406 12.3783 17.4406 16.1526C17.4406 18.6345 18.7612 20.8166 20.7467 22.0154C19.1358 22.5024 17.6654 23.3172 16.4104 24.3755C15.4926 23.5701 14.4249 22.9426 13.2542 22.5399C14.6403 21.5659 15.5582 19.9456 15.5582 18.1194C15.5582 15.1318 13.1419 12.7154 10.1543 12.7154C7.16666 12.7154 4.75036 15.1318 4.75036 18.1194C4.75036 19.9456 5.65881 21.5659 7.05428 22.5399C3.33616 23.823 0.666992 27.3538 0.666992 31.5027V32.1208C0.666992 32.1395 0.685723 32.1583 0.704454 32.1583H12.1585C12.0929 32.6734 12.0555 33.2072 12.0555 33.741V34.3779C12.0555 37.1314 14.2845 39.3603 17.0379 39.3603H31.5545C34.3079 39.3603 36.5369 37.1314 36.5369 34.3779V33.741C36.5369 33.2072 36.4995 32.6734 36.4339 32.1583H47.9629C47.9816 32.1583 48.0003 32.1395 48.0003 32.1208V31.5027C47.9816 27.3444 45.3218 23.8136 41.6037 22.5305ZM34.5983 18.1006C34.5983 15.9465 36.3496 14.1952 38.5037 14.1952C40.6578 14.1952 42.4091 15.9465 42.4091 18.1006C42.4091 20.2266 40.6952 21.9592 38.5786 22.006C38.5505 22.006 38.5318 22.006 38.5037 22.006C38.4756 22.006 38.4569 22.006 38.4288 22.006C36.3028 21.9686 34.5983 20.236 34.5983 18.1006ZM18.9204 16.1526C18.9204 13.2025 21.318 10.8049 24.2681 10.8049C27.2182 10.8049 29.6158 13.2025 29.6158 16.1526C29.6158 18.9997 27.3775 21.3317 24.5772 21.4909C24.4741 21.4909 24.3711 21.4909 24.2681 21.4909C24.1651 21.4909 24.0621 21.4909 23.959 21.4909C21.1587 21.3317 18.9204 18.9997 18.9204 16.1526ZM6.22075 18.1006C6.22075 15.9465 7.9721 14.1952 10.1262 14.1952C12.2802 14.1952 14.0316 15.9465 14.0316 18.1006C14.0316 20.2266 12.3177 21.9592 10.2011 22.006C10.173 22.006 10.1543 22.006 10.1262 22.006C10.0981 22.006 10.0793 22.006 10.0512 22.006C7.93463 21.9686 6.22075 20.236 6.22075 18.1006ZM12.4207 30.6504H2.18421C2.60565 26.6607 5.97724 23.5326 10.07 23.5045C10.0887 23.5045 10.1074 23.5045 10.1262 23.5045C10.1449 23.5045 10.1636 23.5045 10.1824 23.5045C12.1304 23.5139 13.9098 24.235 15.2866 25.4057C13.9379 26.8667 12.9358 28.6649 12.4207 30.6504ZM35.0197 34.3779C35.0197 36.2978 33.4557 37.8619 31.5357 37.8619H17.0192C15.0993 37.8619 13.5352 36.2978 13.5352 34.3779V33.741C13.5352 27.925 18.1805 23.1674 23.959 22.9988C24.0621 23.0082 24.1744 23.0082 24.2775 23.0082C24.3805 23.0082 24.4929 23.0082 24.5959 22.9988C30.3744 23.1674 35.0197 27.925 35.0197 33.741V34.3779ZM36.1342 30.6504C35.6191 28.6743 34.6357 26.9042 33.2965 25.4432C34.6826 24.2444 36.4807 23.5233 38.4475 23.5045C38.4662 23.5045 38.485 23.5045 38.5037 23.5045C38.5224 23.5045 38.5412 23.5045 38.5599 23.5045C42.6526 23.5326 46.0242 26.6607 46.4456 30.6504H36.1342Z" fill="#7B2CBF"/>
</g>
<defs>
<clipPath id="clip0">
<rect width="47.3333" height="47.3333" fill="white" transform="translate(0.666992 0.666748)"/>
</clipPath>
</defs>
</svg>
