<svg width="50" height="50" viewBox="0 0 50 50" fill="none" xmlns="http://www.w3.org/2000/svg">
<path d="M49.9661 19.0963H49.9679C48.8503 14.6426 46.6435 10.6817 43.329 7.44888V7.4394C38.5646 2.64644 32.158 0.00219727 25.38 0.00219727C18.6021 0.00219727 12.2268 2.6394 7.43379 7.43247C2.64092 12.2253 0 18.5965 0 25.3746C0 32.1526 2.68301 38.5244 7.47598 43.3174C10.7091 46.5504 14.7425 48.8494 19.1962 49.9667V49.9651C19.1962 49.9866 19.322 49.9981 19.4069 49.9981C19.678 49.9981 19.9206 49.8917 20.1174 49.6947L49.707 20.089C49.9655 19.8304 50.0562 19.4071 49.9661 19.0963ZM17.5751 42.8814L17.573 42.8764C15.4345 41.9291 13.5063 40.6033 11.8259 38.9228C4.35498 31.452 4.35498 19.2958 11.8259 11.8249C15.5617 8.08892 20.4675 6.22163 25.3749 6.22163C30.2811 6.22163 35.1889 8.08979 38.9238 11.8249C40.6044 13.5054 41.93 15.4335 42.8774 17.5721L42.8845 17.5742C36.2055 17.5906 29.7652 20.2501 25.0086 25.0076C20.2515 29.7637 17.592 36.2041 17.5751 42.8814ZM19.9786 46.8817C19.8359 46.046 19.7383 45.2011 19.6873 44.3545C19.2833 37.706 21.7566 31.1881 26.4735 26.4722C30.8559 22.089 36.7933 19.6433 42.947 19.6433C43.4154 19.6433 43.8859 19.6575 44.3564 19.6862C45.2026 19.7373 46.0474 19.8348 46.8831 19.9776L19.9786 46.8817ZM45.1588 17.6691C44.0955 14.9211 42.4936 12.4646 40.3888 10.3598C32.11 2.0811 18.6397 2.0814 10.3611 10.3598C2.08262 18.6384 2.08262 32.1087 10.3611 40.3874C12.466 42.492 14.9226 44.0941 17.6705 45.1575C17.7384 45.9343 17.8414 46.7085 17.9801 47.475C14.5741 46.337 11.4597 44.4156 8.89609 41.8518C4.49424 37.4503 2.07012 31.5982 2.07012 25.3734C2.07012 19.1486 4.49424 13.2965 8.8959 8.89478C13.2977 4.49302 19.1498 2.0689 25.3745 2.0689C31.5993 2.0689 37.4516 4.49302 41.8532 8.89468C44.4168 11.4583 46.3382 14.5728 47.4765 17.9787C46.7098 17.8399 45.9355 17.7369 45.1588 17.6691Z" fill="#7B2CBF"/>
</svg>
