<svg width="48" height="48" viewBox="0 0 48 48" fill="none" xmlns="http://www.w3.org/2000/svg">
<g clip-path="url(#clip0)">
<path d="M36.1674 0.666748H12.5007C9.45237 0.670199 6.98197 3.1406 6.97852 6.18897V42.4779C6.98197 45.5262 9.45237 47.9966 12.5007 48.0001H36.1674C39.2158 47.9966 41.6862 45.5262 41.6896 42.4779V6.18897C41.6862 3.1406 39.2158 0.670199 36.1674 0.666748ZM12.5007 2.24453H36.1674C38.0411 2.24689 39.6556 3.56483 40.033 5.40008H8.63518C9.01257 3.56483 10.627 2.24689 12.5007 2.24453ZM40.1118 42.4779C40.1093 44.6552 38.3447 46.4197 36.1674 46.4223H12.5007C10.3234 46.4197 8.55886 44.6552 8.55629 42.4779V40.1112H40.1118V42.4779ZM40.1118 38.5334H8.55629V6.97786H40.1118V38.5334Z" fill="#7B2CBF"/>
<path d="M25.9112 40.9001H22.7557C22.32 40.9001 21.9668 41.2534 21.9668 41.689V44.8446C21.9668 45.2803 22.32 45.6335 22.7557 45.6335H25.9112C26.3469 45.6335 26.7001 45.2803 26.7001 44.8446V41.689C26.7001 41.2534 26.3469 40.9001 25.9112 40.9001ZM25.1224 44.0557H23.5446V42.4779H25.1224V44.0557Z" fill="#7B2CBF"/>
</g>
<defs>
<clipPath id="clip0">
<rect width="47.3333" height="47.3333" fill="white" transform="translate(0.666992 0.666748)"/>
</clipPath>
</defs>
</svg>
