<svg width="48" height="48" viewBox="0 0 48 48" fill="none" xmlns="http://www.w3.org/2000/svg">
<path d="M21.401 38.46C21.3303 38.46 21.2601 38.4483 21.1931 38.4254C18.6254 37.6081 16.291 36.1872 14.3856 34.2818C12.4801 32.3763 11.0592 30.0419 10.2419 27.4742C10.209 27.3786 10.1992 27.2766 10.2133 27.1766C10.2274 27.0765 10.2651 26.9812 10.3231 26.8985L19.8345 13.3266C25.9111 5.44051 35.7066 1.21952 46.0598 2.01716C46.2121 2.02877 46.3551 2.09448 46.4632 2.2024C46.5712 2.31033 46.6371 2.45336 46.6489 2.60562C47.4446 12.9576 43.2255 22.7543 35.3624 28.8142L35.3394 28.8315L21.7675 38.3416C21.6606 38.4181 21.5325 38.4594 21.401 38.46ZM11.5595 27.3642C12.3269 29.6271 13.605 31.683 15.2946 33.3727C16.9843 35.0623 19.0402 36.3404 21.3032 37.1078L34.593 27.7934C41.9661 22.1057 45.9849 12.9671 45.4112 3.25678C35.6887 2.6811 26.552 6.70507 20.865 14.0859L11.5595 27.3642Z" fill="#7B2CBF"/>
<path d="M44.5017 15.5653C44.4611 15.5655 44.4207 15.5618 44.3808 15.5545C41.5898 15.0227 39.0243 13.661 37.0198 11.6476C35.0063 9.64304 33.6447 7.07754 33.1129 4.28658C33.0811 4.1199 33.1168 3.94742 33.2122 3.80707C33.3075 3.66672 33.4547 3.57001 33.6214 3.5382C33.7881 3.50639 33.9606 3.5421 34.1009 3.63746C34.2413 3.73283 34.338 3.88004 34.3698 4.04671C34.8536 6.58573 36.0924 8.91963 37.9243 10.7431C39.7478 12.5749 42.0816 13.8138 44.6207 14.2976C44.7768 14.3276 44.9161 14.4147 45.0115 14.5419C45.1069 14.669 45.1516 14.8272 45.1367 14.9855C45.1218 15.1438 45.0486 15.2908 44.9312 15.398C44.8138 15.5052 44.6607 15.5649 44.5017 15.5653Z" fill="#7B2CBF"/>
<path d="M29.8891 23.7871C28.7303 23.7864 27.6075 23.384 26.7121 22.6484C25.8167 21.9127 25.204 20.8894 24.9785 19.7527C24.7531 18.616 24.9287 17.4362 25.4755 16.4145C26.0223 15.3928 26.9065 14.5923 27.9773 14.1493C29.0482 13.7064 30.2395 13.6485 31.3483 13.9855C32.4571 14.3224 33.4147 15.0334 34.0581 15.9973C34.7014 16.9611 34.9907 18.1182 34.8765 19.2715C34.7624 20.4247 34.2519 21.5026 33.4321 22.3217C32.9671 22.7872 32.4148 23.1563 31.8068 23.4078C31.1988 23.6593 30.5471 23.7882 29.8891 23.7871ZM29.8891 15.0464C29.0256 15.0463 28.1887 15.3456 27.5212 15.8933C26.8536 16.441 26.3966 17.2032 26.228 18.0501C26.0594 18.897 26.1897 19.7762 26.5967 20.5378C27.0037 21.2994 27.6622 21.8963 28.4599 22.2268C29.2577 22.5573 30.1454 22.601 30.9717 22.3503C31.7981 22.0997 32.512 21.5703 32.9917 20.8524C33.4715 20.1344 33.6875 19.2723 33.6028 18.4129C33.5182 17.5536 33.1382 16.7501 32.5276 16.1395C32.1819 15.7921 31.7706 15.5165 31.3178 15.3289C30.8649 15.1413 30.3793 15.0453 29.8891 15.0464Z" fill="#7B2CBF"/>
<path d="M26.4345 46.6965H26.3961C26.2933 46.6902 26.1934 46.6592 26.1051 46.6061C26.0168 46.553 25.9426 46.4793 25.8889 46.3914L20.8556 38.1554C20.7671 38.0106 20.7398 37.8366 20.7796 37.6716C20.8194 37.5067 20.9231 37.3643 21.0679 37.2759C21.2127 37.1874 21.3867 37.1601 21.5517 37.1999C21.7166 37.2397 21.859 37.3434 21.9474 37.4882L26.501 44.9394L29.948 40.5739C30.708 39.6062 31.268 38.4973 31.5957 37.3114C31.9233 36.1254 32.0121 34.8863 31.8567 33.6658L31.4359 30.4292C31.4235 30.3452 31.4279 30.2596 31.449 30.1773C31.4701 30.095 31.5073 30.0178 31.5585 29.9501C31.6097 29.8824 31.6739 29.8255 31.7473 29.7829C31.8208 29.7402 31.9019 29.7126 31.9861 29.7016C32.0703 29.6907 32.1559 29.6966 32.2378 29.719C32.3197 29.7415 32.3963 29.78 32.4631 29.8324C32.5299 29.8847 32.5857 29.9499 32.6271 30.024C32.6685 30.0981 32.6947 30.1798 32.7043 30.2642L33.1251 33.5014C33.3023 34.8914 33.2012 36.3029 32.8278 37.6535C32.4545 39.0042 31.8163 40.2672 30.9504 41.3689L26.9341 46.456C26.8742 46.531 26.7982 46.5915 26.7117 46.6332C26.6252 46.6748 26.5305 46.6964 26.4345 46.6965Z" fill="#7B2CBF"/>
<path d="M10.8449 27.9045C10.7273 27.9046 10.612 27.8723 10.5116 27.8111L2.27692 22.7778C2.18903 22.7241 2.1154 22.65 2.06229 22.5618C2.00918 22.4735 1.97817 22.3737 1.97189 22.2709C1.96561 22.1681 1.98425 22.0653 2.02622 21.9713C2.06819 21.8772 2.13225 21.7947 2.21296 21.7307L7.30001 17.7144C8.4019 16.8487 9.66486 16.2107 11.0155 15.8373C12.3661 15.464 13.7775 15.3628 15.1676 15.5396L18.4048 15.9605C18.4892 15.9701 18.5708 15.9963 18.6449 16.0377C18.7191 16.0791 18.7842 16.1348 18.8366 16.2017C18.8889 16.2685 18.9275 16.3451 18.9499 16.427C18.9724 16.5089 18.9783 16.5945 18.9673 16.6787C18.9564 16.7629 18.9288 16.844 18.8861 16.9175C18.8434 16.9909 18.7866 17.0551 18.7189 17.1063C18.6512 17.1575 18.5739 17.1947 18.4917 17.2158C18.4094 17.2368 18.3238 17.2413 18.2398 17.2289L15.0032 16.8081C13.7827 16.6529 12.5435 16.7417 11.3577 17.0694C10.1718 17.397 9.06279 17.957 8.09509 18.7167L3.72763 22.1657L11.1788 26.7193C11.2977 26.792 11.3896 26.9016 11.4405 27.0314C11.4914 27.1613 11.4984 27.3041 11.4606 27.4383C11.4228 27.5725 11.3422 27.6907 11.2311 27.7748C11.1199 27.859 10.9843 27.9045 10.8449 27.9045Z" fill="#7B2CBF"/>
<path d="M10.4051 46.7451C10.2786 46.7451 10.155 46.7076 10.0498 46.6373C9.94467 46.567 9.86271 46.4671 9.81431 46.3502C9.76591 46.2334 9.75324 46.1048 9.77791 45.9807C9.80258 45.8567 9.86348 45.7427 9.9529 45.6533L15.6655 39.9406C15.7245 39.8795 15.7951 39.8308 15.8731 39.7973C15.9512 39.7638 16.0351 39.7461 16.1201 39.7454C16.205 39.7446 16.2892 39.7608 16.3678 39.793C16.4464 39.8252 16.5178 39.8726 16.5779 39.9327C16.638 39.9928 16.6855 40.0642 16.7176 40.1428C16.7498 40.2214 16.766 40.3056 16.7652 40.3906C16.7645 40.4755 16.7468 40.5594 16.7133 40.6375C16.6798 40.7155 16.6311 40.7861 16.57 40.8451L10.8574 46.5577C10.7374 46.6777 10.5748 46.7451 10.4051 46.7451Z" fill="#7B2CBF"/>
<path d="M2.56138 38.9018C2.43489 38.9018 2.31125 38.8643 2.20609 38.794C2.10092 38.7237 2.01896 38.6238 1.97056 38.507C1.92216 38.3901 1.90949 38.2615 1.93416 38.1375C1.95883 38.0134 2.01973 37.8994 2.10915 37.81L7.82177 32.0974C7.88078 32.0363 7.95136 31.9876 8.0294 31.954C8.10744 31.9205 8.19137 31.9029 8.2763 31.9021C8.36123 31.9014 8.44546 31.9176 8.52407 31.9497C8.60268 31.9819 8.6741 32.0294 8.73415 32.0894C8.79421 32.1495 8.84171 32.2209 8.87387 32.2995C8.90603 32.3781 8.92221 32.4624 8.92147 32.5473C8.92074 32.6322 8.90309 32.7162 8.86957 32.7942C8.83605 32.8722 8.78732 32.9428 8.72622 33.0018L3.0136 38.7144C2.89368 38.8344 2.73101 38.9018 2.56138 38.9018Z" fill="#7B2CBF"/>
<path d="M2.94907 46.3574C2.82258 46.3573 2.69894 46.3198 2.59378 46.2495C2.48862 46.1792 2.40665 46.0794 2.35825 45.9625C2.30985 45.8456 2.29718 45.717 2.32185 45.593C2.34652 45.4689 2.40742 45.355 2.49685 45.2655L8.64506 39.1173C8.7657 39.0008 8.92728 38.9363 9.09499 38.9378C9.2627 38.9392 9.42313 39.0065 9.54172 39.1251C9.66032 39.2437 9.72759 39.4041 9.72904 39.5718C9.7305 39.7395 9.66603 39.9011 9.54951 40.0217L3.4013 46.17C3.28137 46.2899 3.1187 46.3573 2.94907 46.3574Z" fill="#7B2CBF"/>
</svg>
